<svg width="22" height="20" viewBox="0 0 22 20" fill="none" xmlns="http://www.w3.org/2000/svg">
<g clip-path="url(#clip0_96_1562)">
<path d="M5.00001 12.4998L6.66667 14.1665L10.4167 10.4165M6.66667 6.6665V4.33317C6.66667 3.39975 6.66667 2.93304 6.84833 2.57652C7.00812 2.26292 7.26308 2.00795 7.57669 1.84816C7.93321 1.6665 8.39992 1.6665 9.33334 1.6665H15.6667C16.6001 1.6665 17.0668 1.6665 17.4233 1.84816C17.7369 2.00795 17.9919 2.26292 18.1517 2.57652C18.3333 2.93304 18.3333 3.39975 18.3333 4.33317V10.6665C18.3333 11.5999 18.3333 12.0666 18.1517 12.4232C17.9919 12.7368 17.7369 12.9917 17.4233 13.1515C17.0668 13.3332 16.6001 13.3332 15.6667 13.3332H13.3333M4.33334 18.3332H10.6667C11.6001 18.3332 12.0668 18.3332 12.4233 18.1515C12.7369 17.9917 12.9919 17.7368 13.1517 17.4232C13.3333 17.0666 13.3333 16.5999 13.3333 15.6665V9.33317C13.3333 8.39975 13.3333 7.93304 13.1517 7.57652C12.9919 7.26292 12.7369 7.00795 12.4233 6.84816C12.0668 6.6665 11.6001 6.6665 10.6667 6.6665H4.33334C3.39992 6.6665 2.93321 6.6665 2.57669 6.84816C2.26308 7.00795 2.00812 7.26292 1.84833 7.57652C1.66667 7.93304 1.66667 8.39975 1.66667 9.33317V15.6665C1.66667 16.5999 1.66667 17.0666 1.84833 17.4232C2.00812 17.7368 2.26308 17.9917 2.57669 18.1515C2.93321 18.3332 3.39992 18.3332 4.33334 18.3332Z" stroke="#717680" stroke-width="1.67" stroke-linecap="round" stroke-linejoin="round"/>
</g>
<defs>
<clipPath id="clip0_96_1562">
<rect width="20" height="20" fill="white"/>
</clipPath>
</defs>
</svg>
