<svg width="22" height="20" viewBox="0 0 22 20" fill="none" xmlns="http://www.w3.org/2000/svg">
<path d="M18.3333 17.5V15.8333C18.3333 14.2801 17.271 12.9751 15.8333 12.605M12.9166 2.7423C14.1382 3.23679 15 4.43443 15 5.83333C15 7.23224 14.1382 8.42988 12.9166 8.92437M14.1666 17.5C14.1666 15.9469 14.1666 15.1703 13.9129 14.5577C13.5746 13.741 12.9257 13.092 12.1089 12.7537C11.4963 12.5 10.7198 12.5 9.16663 12.5H6.66663C5.11349 12.5 4.33692 12.5 3.72435 12.7537C2.90759 13.092 2.25867 13.741 1.92036 14.5577C1.66663 15.1703 1.66663 15.9469 1.66663 17.5M11.25 5.83333C11.25 7.67428 9.75757 9.16667 7.91663 9.16667C6.07568 9.16667 4.58329 7.67428 4.58329 5.83333C4.58329 3.99238 6.07568 2.5 7.91663 2.5C9.75757 2.5 11.25 3.99238 11.25 5.83333Z" stroke="#717680" stroke-width="1.67" stroke-linecap="round" stroke-linejoin="round"/>
</svg>
